# xmcd
#
# Track frame offsets: 
#        150
#        14840
#        29815
#        42257
#        55327
#        68522
#        81785
#        95200
#        107472
#        120702
#        134652
#        145830
#        157435
#        171222
#        183395
#        195542
#        209315
#        222270
#        234732
#        246095
#
# Disc length: 3441 seconds
#
# Revision: 0
# Processed by: cddbd v1.5.1PL0 Copyright (c) Steve Scherf et al.
# Submitted via: ExactAudioCopy v0.95a5
#
DISCID=340d6f14
DTITLE=Big Joe Turner - The Boss Of The Blues (1939-1947)
DYEAR=1998
DGENRE=
TTITLE0=Lovin' Mama Blues
TTITLE1=How Long, How Long Blues
TTITLE2=Joe Turner Blues
TTITLE3=Rainy Day Blues
TTITLE4=Wee Baby Blues
TTITLE5=Somebody's Got To Go
TTITLE6=It's The Same Old Story
TTITLE7=Rebecca
TTITLE8=Miss Brown Blues
TTITLE9=Ooh Wee Baby Blues
TTITLE10=Morning Glory
TTITLE11=Low Down Dog
TTITLE12=Back Breaking Blues
TTITLE13=Empty Pocket Blues
TTITLE14=Rocks In My Bed
TTITLE15=Last Goodbye Blues
TTITLE16=Whistle Stop Blues
TTITLE17=Hollywood Bed
TTITLE18=Howlin' Winds
TTITLE19=Kansas City Blues
EXTD=
EXTT0=
EXTT1=
EXTT2=
EXTT3=
EXTT4=
EXTT5=
EXTT6=
EXTT7=
EXTT8=
EXTT9=
EXTT10=
EXTT11=
EXTT12=
EXTT13=
EXTT14=
EXTT15=
EXTT16=
EXTT17=
EXTT18=
EXTT19=
PLAYORDER=
